<svg xmlns="http://www.w3.org/2000/svg" height="2048" preserveAspectRatio="none" style="display: block;" version="1.1" viewBox="0 0 2048 2048" width="2048">

<path d="M 380.452 933.455 C 405.121 867.677 428.912 799.843 452.851 733.659 L 536.731 503.21 L 582.882 375.774 C 590.752 354.179 599.285 326.615 609.781 306.727 C 643.779 242.303 738.605 237.543 772.808 305.748 C 781.432 322.985 784.173 342.571 780.614 361.512 C 777.926 376.051 769.196 396.257 763.729 410.771 C 755.036 433.878 746.468 457.032 738.025 480.232 L 668.986 667.94 C 650.174 718.224 628.231 774.861 611.154 825.548 C 609.391 830.145 607.143 835.521 605.828 840.192 C 594.239 869.58 583.28 900.985 572.451 930.726 C 621.161 929.188 676.845 930.435 725.91 930.771 L 725.935 764.485 C 725.93 731.305 724.878 691.809 727.835 659.223 C 734.717 581.256 767.772 507.909 821.624 451.11 C 860.751 410.206 922.03 365.153 980.554 364.207 C 1001.51 363.96 1021.69 372.122 1036.58 386.869 C 1051.03 401.135 1058.02 418.582 1058.53 438.617 C 1059.01 457.974 1058.75 477.662 1058.74 497.017 L 1058.6 624.865 C 1077.46 617.892 1102.75 610.651 1122.17 604.962 C 1142.48 599.013 1172.61 588.043 1192.89 587.458 C 1213.74 586.857 1239.33 594.916 1254.4 610.04 C 1282.49 638.231 1278.96 669.847 1278.74 706.293 L 1278.73 764.378 C 1297.76 742.804 1324.18 720.146 1354.53 720.218 C 1371.54 720.258 1388.64 726.92 1400.65 739.025 C 1408.75 747.125 1414.4 757.343 1416.96 768.508 C 1420.23 782.506 1419.02 815.924 1419.01 831.785 L 1419.1 930.409 C 1452.02 930.121 1484.93 930.122 1517.85 930.411 C 1517.33 929.195 1516.82 927.976 1516.32 926.755 C 1501.13 889.941 1486.01 846.996 1471.6 809.268 L 1377.06 562.311 L 1326.83 432.122 C 1318.42 410.177 1306.25 383.249 1301.52 360.989 C 1292.63 319.205 1318.15 278.168 1356.41 263.204 C 1379.38 254.147 1405.02 254.649 1427.62 264.597 C 1446.26 273.01 1461.69 287.193 1471.64 305.05 C 1478.65 317.562 1491.37 353.639 1496.87 368.307 L 1540.2 482.861 L 1711.88 934.383 C 1727.25 940.918 1739.44 946.436 1751.9 958.074 C 1771.25 976.133 1783.08 1003.07 1783.65 1029.49 C 1784.05 1056.67 1773.54 1082.87 1754.47 1102.24 C 1725.85 1131.51 1697.05 1132.8 1659.63 1133.12 C 1651.88 1187.6 1641.46 1246.72 1631.9 1300.99 C 1640.53 1303.71 1648.96 1307.01 1657.14 1310.86 C 1711.46 1336.84 1753.2 1383.38 1773.14 1440.2 C 1793.41 1496.92 1790.42 1559.37 1764.81 1613.9 C 1711.27 1727.71 1569.94 1778.83 1456.44 1724.59 L 1453.88 1725.6 C 1405.48 1744.5 1367.24 1746.02 1316.63 1745.98 L 1247.76 1745.98 L 1020.57 1745.94 L 815.489 1745.98 C 725.406 1746.01 670.356 1751.97 585.982 1714.92 C 551.337 1732.54 517.786 1755.31 478.609 1742.28 C 464.348 1737.4 451.823 1728.46 442.574 1716.56 C 436.206 1708.49 427.065 1689.97 421.877 1680.14 L 396.154 1632.18 L 336.064 1519.35 C 325.778 1500.11 312.775 1477.41 303.293 1458.27 C 294.529 1440.28 293.255 1419.54 299.748 1400.61 C 304.08 1387.86 311.763 1376.5 321.993 1367.74 C 335.14 1356.26 358.703 1345.96 374.908 1337.92 C 398.608 1326.15 422.394 1314.54 446.264 1303.11 C 434.999 1248.58 427.493 1188.43 417.44 1133.02 C 392.161 1133.61 375.602 1132.15 352.847 1119.67 C 329.123 1106.73 311.6 1084.79 304.223 1058.8 C 296.888 1033.22 300.192 1005.76 313.385 982.65 C 328.953 955.176 351.04 941.777 380.452 933.455 z" fill="#1C1C1E" transform="translate(0,0)"></path>
<path d="M 468.892 1133.08 L 1608.26 1132.96 C 1601.44 1183.84 1589.64 1237.38 1583.71 1288.55 C 1567.45 1287.62 1548.95 1287.18 1532.92 1288.62 C 1470.65 1293.84 1413.13 1324 1373.41 1372.24 C 1335.17 1418.26 1316.98 1481.15 1322.58 1540.54 C 1328.13 1598.32 1356.39 1651.53 1401.16 1688.47 C 1366.92 1695.94 1343.48 1694.96 1308.98 1694.9 L 1237.25 1694.72 L 901.807 1694.73 L 789.431 1694.88 C 735.339 1694.94 699.182 1697.71 646.284 1684.32 C 712.161 1653.65 783.638 1616.68 849.062 1584.06 L 905.994 1555.82 C 917.297 1550.23 935.07 1542.15 944.789 1534.91 C 955.983 1526.48 964.585 1515.08 969.614 1502 C 985.9 1460.79 957.04 1421.72 937.878 1386.7 L 889.252 1297.36 L 851.034 1226.69 C 835.915 1198.81 825.598 1170.88 793.221 1159.41 C 760.361 1147.78 739.964 1158.3 710.44 1172.5 C 682.729 1185.83 655.012 1200.48 627.14 1213.76 C 582.078 1235.22 537.667 1259.02 492.409 1280.03 C 489.081 1264.63 485.964 1240.39 483.396 1224.29 C 478.267 1193.93 473.431 1163.53 468.892 1133.08 z" fill="#FFFFFF" transform="translate(0,0)"></path>
<path d="M 1223.8 981.488 L 1558.8 981.703 L 1646.64 981.614 C 1660.07 981.597 1676.88 980.94 1689.94 981.979 C 1714.59 985.689 1730.91 1005.63 1732.91 1029.55 C 1734.68 1050.81 1714.71 1079.02 1693.43 1080.87 C 1668.1 1083.08 1638.57 1082.1 1612.42 1082.12 L 1449.82 1082.08 L 862.5 1082.08 L 540.136 1082.05 L 443.354 1082.07 C 416.255 1082.07 389.304 1087.05 367.85 1068.42 C 334.677 1039.61 355.438 985.008 396.977 982.23 C 422.625 980.514 450.264 981.6 475.998 981.62 L 637.058 981.663 L 1223.8 981.488 z" fill="#FFFFFF" transform="translate(0,0)"></path>
<path d="M 1547.3 1335.88 C 1647.07 1332.33 1730.86 1410.28 1734.52 1510.05 C 1738.17 1609.82 1660.32 1693.69 1560.55 1697.46 C 1460.63 1701.23 1376.6 1623.23 1372.94 1523.31 C 1369.28 1423.38 1447.37 1339.44 1547.3 1335.88 z" fill="#8E8E93" transform="translate(0,0)"></path>
<path d="M 1658.01 1431.12 C 1666.17 1430.62 1670.93 1430.8 1677.4 1436.11 C 1690.59 1446.96 1689.14 1462.8 1677.78 1474.19 C 1668.1 1483.9 1658.65 1493.26 1649.13 1502.78 L 1581.78 1569.5 L 1547.78 1603.45 C 1538.21 1613.03 1520.54 1635.37 1504.85 1622.61 C 1487.26 1608.29 1470.36 1589.54 1454.23 1573.26 C 1444.57 1563.51 1428.04 1550.63 1426.05 1537.42 C 1423.12 1517.93 1445.39 1502.37 1461.1 1514.69 C 1480.15 1529.64 1498.8 1550.02 1516.17 1566.73 C 1527.8 1556.52 1542.98 1540.34 1554.26 1529.06 L 1612.54 1471.32 C 1622.57 1461.3 1645.87 1435.58 1658.01 1431.12 z" fill="#1C1C1E" transform="translate(0,0)"></path>
<path d="M 972.787 414.289 C 974.702 414.122 976.622 414.029 978.544 414.009 C 986.998 413.888 994.356 416.099 1000.5 422.084 C 1008.5 429.871 1008.45 438.331 1008.51 448.696 C 1008.62 466.583 1008.59 484.464 1008.59 502.349 L 1008.77 641.191 C 991.113 649.787 980.116 655 965.828 669.381 C 948.357 687.143 936.006 709.293 930.08 733.493 C 925.027 754.53 926.832 793.931 926.842 817.028 L 926.785 930.622 C 889.885 930.152 852.981 930.11 816.08 930.494 L 776.759 930.38 L 776.818 768.035 C 776.775 728.598 774.96 681.546 781.147 643.43 C 786.707 608.307 798.308 574.413 815.436 543.25 C 849.671 481.857 904.542 433.598 972.787 414.289 z" fill="#FFFFFF" transform="translate(0,0)"></path>
<path d="M 855.356 1342.93 L 856.578 1343.37 C 863.63 1352.95 871.137 1368.55 876.897 1379.41 C 891.254 1406.49 906.614 1433.33 920.271 1460.74 C 926.771 1473.78 924.705 1490.32 910.688 1497.36 C 881.469 1512.05 852.046 1526.5 822.725 1541.07 L 646.284 1628.42 L 557.743 1672.55 C 542.707 1680.06 526.851 1688.33 511.367 1694.77 C 504.075 1697.8 496.77 1695.37 489.969 1692.19 C 478.705 1684.06 466.749 1657.18 459.754 1644.21 L 415.072 1560.84 C 479.463 1528.31 544.095 1496.25 608.963 1464.68 L 855.356 1342.93 z" fill="#FFFFFF" transform="translate(0,0)"></path>
<path d="M 761.95 1447.17 C 774.171 1446.57 783.972 1450.25 788.998 1462.1 C 791.81 1468.57 791.874 1475.9 789.176 1482.42 C 783.987 1495.01 761.827 1502.89 749.658 1508.75 C 733.994 1516.26 718.393 1523.9 702.857 1531.66 L 630.992 1567.26 C 619.258 1573.11 602.466 1582.34 590.882 1586.81 C 585.045 1586.75 580.691 1586.5 575.234 1584.02 C 569.554 1581.44 565.173 1576.66 563.102 1570.77 C 559.111 1559.74 562.571 1546.8 573.015 1540.81 C 584.793 1534.06 596.943 1528.17 609.059 1522.06 C 632.857 1510.05 656.74 1498.2 680.706 1486.53 L 731.279 1461.59 C 740.504 1457.04 752.733 1450.53 761.95 1447.17 z" fill="#1C1C1E" transform="translate(0,0)"></path>
<path d="M 758.109 1205.15 C 763.78 1204.75 768.892 1204.66 774.373 1206.5 C 778.509 1207.93 782.189 1210.44 785.039 1213.76 C 792.288 1222.04 826.965 1286.2 832.613 1297.88 C 801.769 1313.91 769.717 1329.19 738.533 1344.59 L 593.761 1416.21 C 532.894 1446.15 471.358 1478.13 410.125 1507.05 C 404.203 1509.81 397.216 1513.62 391.299 1516.63 C 378.174 1492.21 365.031 1467.81 351.772 1443.46 C 344.918 1430.87 342.704 1411.31 357.469 1403.32 C 380.664 1390.77 404.545 1378.99 428.299 1367.5 L 530.978 1317.01 L 690.985 1238.08 C 711.675 1227.97 737.677 1213.97 758.109 1205.15 z" fill="#8E8E93" transform="translate(0,0)"></path>
<path d="M 1383.8 307.223 C 1400.8 306.045 1420.29 313.404 1427.63 329.884 C 1435.92 348.498 1442.83 368.391 1450.11 387.484 L 1497.67 512.578 L 1656.33 930.583 L 1622.5 930.627 L 1572.51 930.428 C 1555.26 886.274 1538.23 842.035 1521.43 797.711 L 1425.48 547.786 L 1375.75 418.568 C 1367.72 397.554 1359.24 376.762 1352.24 355.385 C 1344.34 331.267 1361.39 313.312 1383.8 307.223 z" fill="#FFFFFF" transform="translate(0,0)"></path>
<path d="M 688.052 307.257 C 694.579 306.787 699.809 307.399 706.026 309.708 C 716.168 313.403 724.375 321.058 728.765 330.919 C 732.689 339.937 732.532 346.534 729.682 355.607 C 722.087 379.788 712.659 404.782 703.821 428.514 L 656.803 554.746 L 518.327 930.847 L 481.684 930.425 L 435.257 930.786 C 442.196 914.736 450.636 888.298 456.772 871.184 L 493.873 769.198 L 607.272 457.535 L 636.139 378.151 C 647.368 346.901 651.166 314.761 688.052 307.257 z" fill="#FFFFFF" transform="translate(0,0)"></path>
<path d="M 1188.53 637.267 C 1189.99 637.168 1191.45 637.114 1192.91 637.106 C 1232.71 636.743 1229.17 671.28 1229.15 698.688 L 1229.05 751.665 L 1229.06 931.073 C 1211.11 930.862 1193.15 930.795 1175.18 930.872 L 1175.22 801.862 C 1175.24 781.23 1176.11 760.419 1175.01 739.926 C 1173.88 721.842 1153.25 711.535 1137.76 720.856 C 1121.73 730.502 1126.72 752.151 1125.96 768.298 C 1125.48 778.369 1125.95 789.863 1125.95 800.145 L 1126.01 931.076 L 1081.39 931.1 C 1081.1 915.889 1081.3 900.015 1081.28 884.75 L 1081.3 805.876 C 1081.35 797.463 1081.31 788.515 1081.47 779.94 C 1081.87 761.023 1082.51 742.64 1058.99 739.455 C 1048.41 738.022 1035.19 747.791 1034.2 758.009 C 1032.5 775.594 1033.31 794.762 1033.37 812.521 C 1033.7 852.042 1033.72 891.565 1033.43 931.086 C 1014.39 930.883 995.345 930.859 976.301 931.014 C 976.551 893.182 976.605 855.349 976.463 817.517 C 976.393 801.523 975.385 766.845 977.27 752.904 C 978.849 741.643 982.617 730.8 988.361 720.986 C 995.705 708.507 1006.19 698.169 1018.77 690.998 C 1034.93 681.794 1077.5 670.429 1097.36 664.546 C 1126.59 655.882 1159.21 645.053 1188.53 637.267 z" fill="#8E8E93" transform="translate(0,0)"></path>
<path d="M 1350.97 770.217 C 1361.68 770.815 1367.55 772.949 1368.33 784.795 C 1369.41 801.255 1368.94 818.315 1368.94 834.825 L 1368.88 930.616 L 1297.9 930.509 L 1278.64 930.536 C 1277.69 891.362 1275.99 868.603 1293.85 832.528 C 1305.24 809.514 1325.73 779.319 1350.97 770.217 z" fill="#FFFFFF" transform="translate(0,0)"></path>
<metadata><recraft-signature>{"signed_by": "recraft", "signature_b64": "cyvuc5VK5uhKU2p/Sf/WHx2im7eKQeS1H5AjFrZnj9I+3oI3NLgkwcQQ0f9Y35t+iPo/KPnINQyTUSkmDcGIBw==", "signing_algo": "Ed25519", "generation_timestamp": 1781109176, "identifier": "217ef4de-2184-46d7-ae9b-7aa8fb8e1f5e"}</recraft-signature></metadata></svg>