<svg xmlns="http://www.w3.org/2000/svg" viewBox="336 368 1376 1376" width="1376" height="1376">
  <!-- Hand-authored from Groceries spec: ink #1C1C1E, white #FFFFFF, mid #8E8E93, halo 56, rx 72 -->
  <!-- "Less decision fatigue": recipe swipe card (photo + title lines) with a
       heart badge stamped on its corner, one skipped card fading behind. -->
  <rect x="448" y="640" width="600" height="800" rx="72" fill="#8E8E93" stroke="#FFFFFF" stroke-width="56" transform="rotate(-8 748 1040)"/>
  <rect x="728" y="520" width="700" height="920" rx="72" fill="#FFFFFF" stroke="#1C1C1E" stroke-width="56" transform="rotate(4 1078 980)"/>
  <rect x="812" y="620" width="532" height="400" rx="48" fill="#8E8E93" transform="rotate(4 1078 980)"/>
  <rect x="812" y="1104" width="440" height="64" rx="32" fill="#1C1C1E" transform="rotate(4 1078 980)"/>
  <rect x="812" y="1236" width="320" height="64" rx="32" fill="#8E8E93" transform="rotate(4 1078 980)"/>
  <circle cx="1428" cy="1400" r="176" fill="#1C1C1E" stroke="#FFFFFF" stroke-width="56"/>
  <path d="M 1428 1496 C 1340 1424 1312 1366 1356 1322 C 1394 1286 1428 1314 1428 1344 C 1428 1314 1462 1286 1500 1322 C 1544 1366 1516 1424 1428 1496 Z" fill="#FFFFFF"/>
</svg>
