<?xml version="1.0" encoding="UTF-8"?>
<svg xmlns="http://www.w3.org/2000/svg" viewBox="0 0 32 32">
  <defs>
    <mask id="sfsym-m0" maskUnits="userSpaceOnUse" x="0" y="0" width="32" height="32">
      <rect x="0" y="0" width="32" height="32" fill="white"/>
      <path fill="black" d="M11.5723 23.3414 C10.1422 23.3414 8.983 22.1728 8.983 20.7219 C8.983 19.3055 10.1516 18.1533 11.5723 18.1533 C12.998 18.1533 14.1731 19.3077 14.1731 20.7219 C14.1731 22.1748 13.0093 23.3414 11.5723 23.3414 Z M19.9218 15.6107 C18.1429 15.6107 16.6729 14.1314 16.6729 12.3502 C16.6729 10.5775 18.1335 9.1282 19.9218 9.1282 C21.7081 9.1282 23.1575 10.5775 23.1575 12.3502 C23.1575 14.1314 21.6988 15.6107 19.9218 15.6107 Z"/>
    </mask>
  </defs>
  <path data-layer="monochrome-0" fill="currentColor" mask="url(#sfsym-m0)" d="M14.9356 6.8511 C15.5985 6.8511 16.1272 6.3203 16.1272 5.6554 C16.1272 5.0038 15.5985 4.4731 14.9356 4.4731 C14.2727 4.4731 13.7419 5.0038 13.7419 5.6554 C13.7419 6.3203 14.2727 6.8511 14.9356 6.8511 Z M20.9868 5.3869 C21.6497 5.3869 22.1784 4.8562 22.1784 4.1953 C22.1784 3.5303 21.6497 3.0016 20.9868 3.0016 C20.3238 3.0016 19.7931 3.5303 19.7931 4.1953 C19.7931 4.8562 20.3238 5.3869 20.9868 5.3869 Z M26.6191 8.5632 C27.2821 8.5632 27.8128 8.0304 27.8128 7.3695 C27.8128 6.7046 27.2821 6.1759 26.6191 6.1759 C25.9562 6.1759 25.4255 6.7046 25.4255 7.3695 C25.4255 8.0304 25.9562 8.5632 26.6191 8.5632 Z M28.0863 14.6471 C28.742 14.6471 29.282 14.1163 29.282 13.4534 C29.282 12.7905 28.742 12.2577 28.0863 12.2577 C27.4255 12.2577 26.8927 12.7905 26.8927 13.4534 C26.8927 14.1163 27.4255 14.6471 28.0863 14.6471 Z M24.9108 20.2201 C25.5624 20.2201 26.0931 19.6873 26.0931 19.0264 C26.0931 18.3615 25.5624 17.8327 24.9108 17.8327 C24.2459 17.8327 23.7151 18.3615 23.7151 19.0264 C23.7151 19.6873 24.2459 20.2201 24.9108 20.2201 Z M19.4883 22.8526 C20.1532 22.8526 20.6819 22.3218 20.6819 21.6609 C20.6819 20.996 20.1532 20.4672 19.4883 20.4672 C18.8273 20.4672 18.2966 20.996 18.2966 21.6609 C18.2966 22.3218 18.8273 22.8526 19.4883 22.8526 Z M16.4369 27.8927 C17.0998 27.8927 17.6326 27.3619 17.6326 26.699 C17.6326 26.0361 17.0998 25.5054 16.4369 25.5054 C15.774 25.5054 15.2432 26.0361 15.2432 26.699 C15.2432 27.3619 15.774 27.8927 16.4369 27.8927 Z M10.6425 29.6632 C11.3055 29.6632 11.8382 29.1305 11.8382 28.4696 C11.8382 27.8046 11.3055 27.2759 10.6425 27.2759 C9.9796 27.2759 9.4489 27.8046 9.4489 28.4696 C9.4489 29.1305 9.9796 29.6632 10.6425 29.6632 Z M5.6253 26.7566 C6.2882 26.7566 6.817 26.2259 6.817 25.563 C6.817 24.898 6.2882 24.3693 5.6253 24.3693 C4.9624 24.3693 4.4317 24.898 4.4317 25.563 C4.4317 26.2259 4.9624 26.7566 5.6253 26.7566 Z M3.9091 20.9589 C4.5647 20.9589 5.0935 20.4302 5.0935 19.7673 C5.0935 19.1043 4.5647 18.5736 3.9091 18.5736 C3.2462 18.5736 2.7175 19.1043 2.7175 19.7673 C2.7175 20.4302 3.2462 20.9589 3.9091 20.9589 Z M6.9991 15.6987 C7.664 15.6987 8.1927 15.168 8.1927 14.5051 C8.1927 13.8421 7.664 13.3114 6.9991 13.3114 C6.3382 13.3114 5.8054 13.8421 5.8054 14.5051 C5.8054 15.168 6.3382 15.6987 6.9991 15.6987 Z M11.9707 12.4831 C12.6336 12.4831 13.1623 11.9523 13.1623 11.2988 C13.1623 10.6358 12.6336 10.1051 11.9707 10.1051 C11.3058 10.1051 10.777 10.6358 10.777 11.2988 C10.777 11.9523 11.3058 12.4831 11.9707 12.4831 Z"/>
  <path data-layer="monochrome-0" fill="currentColor" mask="url(#sfsym-m0)" d="M11.5723 25.3995 C14.155 25.3995 16.2267 23.3089 16.2267 20.7197 C16.2267 18.1714 14.1415 16.0996 11.5723 16.0996 C9.0084 16.0996 6.9249 18.1714 6.9249 20.7197 C6.9249 23.3069 9.0084 25.3995 11.5723 25.3995 Z M19.9218 17.7201 C22.8598 17.7201 25.2668 15.2995 25.2668 12.348 C25.2668 9.4123 22.8598 7.0095 19.9218 7.0095 C16.9841 7.0095 14.5562 9.4123 14.5562 12.348 C14.5562 15.2995 16.9841 17.7201 19.9218 17.7201 Z"/>
</svg>
