<svg viewBox="0 0 32 32">
  <path data-layer="monochrome-0" fill="currentColor" d="M18.0469 26.5263 C18.4117 26.5263 18.7658 26.3768 19.0771 26.0794 L27.7507 17.4077 C28.0482 17.1217 28.2236 16.7367 28.2236 16.3438 C28.2236 15.9509 28.0482 15.5659 27.7507 15.2799 L19.0995 6.6253 C18.7707 6.3081 18.4117 6.1585 18.0469 6.1585 C17.2331 6.1585 16.6418 6.7494 16.6418 7.539 C16.6418 7.9425 16.7914 8.2993 17.0627 8.5562 L19.9993 11.5425 L25.2476 16.3438 L19.9993 21.1451 L17.0627 24.1286 C16.7939 24.3831 16.6418 24.7423 16.6418 25.1458 C16.6418 25.9354 17.2331 26.5263 18.0469 26.5263 Z M4.8274 17.7866 L20.8142 17.7866 L25.3699 17.513 C26.0867 17.4673 26.569 17.0414 26.569 16.3438 C26.569 15.6461 26.0867 15.2203 25.3749 15.1746 L20.8142 14.901 L4.8274 14.901 C3.9649 14.901 3.3684 15.4954 3.3684 16.3438 C3.3684 17.1922 3.9649 17.7866 4.8274 17.7866 Z"/>
</svg>
