<svg viewBox="0 0 32 32">
  <path data-layer="monochrome-0" fill="currentColor" d="M5.4986 21.159 C5.4986 21.5034 5.6966 21.6927 6.0299 21.6927 L25.4837 21.6927 C25.815 21.6927 26.0112 21.5034 26.0112 21.159 L26.0112 11.4384 C26.0112 11.0941 25.815 10.9048 25.4837 10.9048 L6.0299 10.9048 C5.6966 10.9048 5.4986 11.0941 5.4986 11.4384 Z M6.5636 20.4191 L6.5636 12.1784 C6.5636 12.0386 6.6303 11.9632 6.77 11.9632 L24.7397 11.9632 C24.8814 11.9632 24.948 12.0386 24.948 12.1784 L24.948 20.4191 C24.948 20.5589 24.8814 20.6343 24.7397 20.6343 L6.77 20.6343 C6.6303 20.6343 6.5636 20.5589 6.5636 20.4191 Z M15.7154 21.6927 C17.834 21.6927 19.4885 19.5778 19.4885 16.286 C19.4885 13.0176 17.834 10.9048 15.7154 10.9048 C13.6472 10.9048 12.0359 13.0176 12.0359 16.286 C12.0359 19.5778 13.6453 21.6927 15.7154 21.6927 Z M15.7154 20.4394 C14.37 20.4394 13.2445 18.8378 13.2445 16.286 C13.2445 13.7488 14.37 12.16 15.7154 12.16 C17.1132 12.16 18.278 13.7488 18.278 16.286 C18.278 18.8378 17.1132 20.4394 15.7154 20.4394 Z"/>
  <path data-layer="monochrome-0" fill="currentColor" d="M2.56 23.776 C2.56 24.2943 2.8988 24.64 3.4134 24.64 L28.0964 24.64 C28.6128 24.64 28.9498 24.2943 28.9498 23.776 L28.9498 8.8215 C28.9498 8.3032 28.6128 7.9662 28.0964 7.9662 L3.4134 7.9662 C2.8988 7.9662 2.56 8.3032 2.56 8.8215 Z M4.5172 22.3932 L4.5172 10.2042 C4.5172 10.0042 4.598 9.9235 4.8068 9.9235 L26.703 9.9235 C26.9136 9.9235 26.9944 10.0042 26.9944 10.2042 L26.9944 22.3932 C26.9944 22.5932 26.9136 22.674 26.703 22.674 L4.8068 22.674 C4.598 22.674 4.5172 22.5932 4.5172 22.3932 Z"/>
</svg>
