<?xml version="1.0" encoding="UTF-8"?>
<svg xmlns="http://www.w3.org/2000/svg" viewBox="0 0 32 32">
  <path data-layer="monochrome-0" fill="currentColor" d="M5.7412 21.2375 C5.7412 21.3813 5.8166 21.4567 5.9585 21.4567 L13.4426 21.4567 C12.468 20.4033 11.8955 18.5849 11.8955 16.286 C11.8955 13.9998 12.468 12.1921 13.4279 11.1408 L5.9585 11.1408 C5.8166 11.1408 5.7412 11.2162 5.7412 11.3688 Z M13.1494 16.286 C13.1494 19.282 14.1886 21.2325 15.7154 21.2325 C17.2947 21.2325 18.3713 19.282 18.3713 16.286 C18.3713 13.3008 17.2947 11.3543 15.7154 11.3543 C14.1886 11.3543 13.1494 13.3008 13.1494 16.286 Z M18.0426 21.4567 L25.5512 21.4567 C25.695 21.4567 25.7704 21.3813 25.7704 21.2375 L25.7704 11.3688 C25.7704 11.2162 25.695 11.1408 25.5512 11.1408 L18.0553 11.1408 C19.0457 12.1921 19.627 13.9998 19.627 16.286 C19.627 18.5849 19.0348 20.4033 18.0426 21.4567 Z"/>
  <path data-layer="monochrome-0" fill="currentColor" d="M2.56 23.776 C2.56 24.2943 2.8988 24.64 3.4134 24.64 L28.0964 24.64 C28.6128 24.64 28.9498 24.2943 28.9498 23.776 L28.9498 8.8215 C28.9498 8.3032 28.6128 7.9662 28.0964 7.9662 L3.4134 7.9662 C2.8988 7.9662 2.56 8.3032 2.56 8.8215 Z M4.6331 22.0009 L4.6331 10.5965 C4.6331 10.2286 4.8399 10.0393 5.1861 10.0393 L26.3255 10.0393 C26.6718 10.0393 26.8767 10.2286 26.8767 10.5965 L26.8767 22.0009 C26.8767 22.3689 26.6718 22.5582 26.3255 22.5582 L5.1861 22.5582 C4.8399 22.5582 4.6331 22.3689 4.6331 22.0009 Z"/>
</svg>
