<?xml version="1.0" encoding="UTF-8"?>
<svg xmlns="http://www.w3.org/2000/svg" viewBox="0 0 32 32">
  <path data-layer="monochrome-0" fill="currentColor" d="M17.6555 29.8182 C21.938 29.8158 24.5732 28.2701 24.5732 25.6154 L24.5732 20.121 C26.3481 18.5392 27.3856 16.0148 27.3856 13.2592 C27.3856 6.758 23.1504 2.4212 16.8457 2.4212 C10.5598 2.4212 6.3514 6.6731 6.3514 13.017 C6.3514 13.3595 6.3635 13.649 6.3901 13.9262 L4.9361 16.526 C4.5559 17.2054 4.3636 17.881 4.3636 18.5039 C4.3636 19.6625 5.0772 20.6241 6.3533 20.9258 L6.3533 22.8821 C6.3533 25.0874 7.8889 26.1998 9.9895 25.9715 L12.2637 25.7417 L10.8325 24.3916 L10.8325 25.6154 C10.8325 28.258 13.4179 29.8182 17.6555 29.8182 Z M17.6555 27.6876 C14.6601 27.6876 12.8687 26.7577 12.8687 25.289 L12.8687 23.874 C12.8687 23.6434 12.7204 23.5111 12.4994 23.533 L9.722 23.8487 C8.9241 23.9322 8.4839 23.5853 8.4839 22.7298 L8.4839 19.4738 C8.4839 19.3127 8.3753 19.2017 8.1796 19.2017 L7.63 19.2017 C6.9682 19.2017 6.5898 18.8694 6.5898 18.3553 C6.5898 18.0881 6.6837 17.7737 6.8601 17.4526 L8.5941 14.3513 C8.519 13.8965 8.4796 13.4432 8.4796 12.988 C8.4796 7.9317 11.8184 4.5596 16.8457 4.5596 C21.8773 4.5596 25.2526 8.0311 25.2526 13.2592 C25.2526 15.7828 24.1858 17.9898 22.4233 19.0609 L22.43 25.289 C22.43 26.7577 20.6319 27.6876 17.6555 27.6876 Z"/>
  <path data-layer="monochrome-0" fill="currentColor" d="M10.0629 11.3405 C10.0629 13.2976 11.4278 14.6335 13.4527 14.6335 C15.4441 14.6357 16.7957 13.4356 16.7957 11.6733 C16.7957 10.937 16.5328 10.3096 16.0752 9.9205 C15.85 9.7442 15.7088 9.6706 15.4981 9.6706 C15.1809 9.6706 14.9422 9.8945 14.9422 10.1849 C14.9422 10.5084 15.1202 10.6014 15.3715 10.8382 C15.5598 11.0287 15.6716 11.3055 15.6716 11.6486 C15.6716 12.7719 14.8019 13.4971 13.4674 13.4971 C12.0991 13.4971 11.1993 12.654 11.1993 11.3359 C11.1993 10.5399 11.626 9.8093 12.3269 9.4173 L11.7577 8.4194 C10.7218 8.9981 10.0629 10.137 10.0629 11.3405 Z M11.4488 8.6153 C11.4488 9.8858 12.343 10.7469 13.6636 10.7469 C13.9685 10.7469 14.234 10.4858 14.234 10.1809 C14.234 9.866 13.9685 9.6105 13.6636 9.6105 C13.0143 9.6105 12.5852 9.2126 12.5852 8.6153 C12.5852 7.9786 13.1179 7.5162 13.8495 7.5162 C14.2574 7.5162 14.675 7.6693 15.0346 7.9573 L15.6903 7.0163 C15.1624 6.608 14.5202 6.3798 13.8495 6.3798 C12.4813 6.3798 11.4488 7.332 11.4488 8.6153 Z M14.2256 8.4552 C14.2178 8.7993 14.4376 9.0602 14.7814 9.0602 C15.1108 9.0602 15.337 8.8261 15.3494 8.4989 C15.3927 7.5791 16.0436 6.9425 16.9556 6.9304 C17.4942 6.9304 17.967 7.2194 18.1628 7.6654 C18.2479 7.8275 18.4176 7.8312 18.6494 7.7678 C18.7694 7.7313 18.9037 7.7248 19.0479 7.7248 C19.9693 7.727 20.6959 8.4455 20.6959 9.3917 C20.6959 11.7181 17.2723 11.3718 17.2723 13.902 C17.2723 15.0561 18.1862 15.8824 19.5018 15.8824 C19.5768 15.8824 19.654 15.8824 19.7533 15.8824 C19.9379 16.9086 20.6184 17.6037 21.4544 17.6037 C22.6735 17.6037 23.5295 16.261 23.5295 14.3398 C23.5295 13.5888 23.4761 13.0823 23.4299 12.6025 L22.2938 12.9356 C22.3397 13.3873 22.3955 13.8005 22.3955 14.3396 C22.3955 15.5764 21.9582 16.4649 21.4544 16.4649 C21.0075 16.4649 20.6996 15.9011 20.6996 15.086 C20.6996 14.9335 20.5912 14.8528 20.4442 14.8528 C20.3003 14.8528 20.136 14.8571 19.9828 14.8571 C18.957 14.8571 18.4279 14.5144 18.4279 13.8753 C18.4279 12.1187 21.8299 12.5536 21.8299 9.3917 C21.8299 7.7966 20.6575 6.5885 19.1569 6.5885 C19.0475 6.5885 18.9392 6.6006 18.8188 6.6234 C18.358 6.1109 17.6716 5.8109 16.9556 5.8109 C15.4139 5.8109 14.2783 6.8988 14.2256 8.4552 Z M20.3467 13.5513 C20.3467 13.854 20.5732 14.0948 20.9004 14.1294 C22.7517 14.2451 24.0218 13.1377 24.0218 11.3675 C24.0218 9.8659 22.9166 8.7172 21.2888 8.5818 L21.119 9.7275 C22.1713 9.6616 22.8854 10.3152 22.8854 11.3675 C22.8854 12.435 22.1172 13.0916 20.9251 12.9954 C20.61 12.9684 20.3467 13.2462 20.3467 13.5513 Z M17.8627 14.075 C17.5573 14.1982 17.1534 14.2754 16.7836 14.2754 C15.9281 14.2754 15.1179 13.9294 14.8674 13.4226 L13.8756 14.1988 C14.4666 14.9402 15.5211 15.4062 16.683 15.4062 C17.2006 15.4062 17.7519 15.3133 18.2422 15.1501 Z M15.9221 10.5045 L16.2919 11.5974 C17.6946 11.3747 18.456 10.5216 18.4443 9.1409 C18.4395 8.8435 18.1663 8.5726 17.8592 8.5726 C17.552 8.5726 17.3053 8.8336 17.3101 9.143 C17.3196 10.0181 16.8943 10.4139 15.9221 10.5045 Z"/>
</svg>
