<?xml version="1.0" encoding="UTF-8"?>
<svg xmlns="http://www.w3.org/2000/svg" viewBox="0 0 32 32">
  <path data-layer="monochrome-0" fill="currentColor" d="M24.8 14.3654 C24.0386 14.3677 23.429 13.7468 23.429 12.9967 C23.429 12.2418 24.0408 11.6207 24.8 11.6207 C25.5528 11.6207 26.1647 12.2418 26.1647 12.9967 C26.1647 13.7468 25.5551 14.3632 24.8 14.3654 Z M6.2118 26.5532 L25.5226 26.5532 C27.8159 26.5532 29.0089 25.3634 29.0089 23.0928 L29.0089 11.9416 C29.0089 9.671 27.8159 8.4926 25.5226 8.4926 L22.6722 8.4926 C21.8363 8.4926 21.573 8.3377 21.0576 7.8021 L20.2179 6.8919 C19.658 6.3117 19.1031 6.0161 18.0238 6.0161 L13.6549 6.0161 C12.5642 6.0161 12.0093 6.3117 11.4608 6.8919 L10.6098 7.8021 C10.1097 8.3337 9.831 8.4926 9.0065 8.4926 L6.2118 8.4926 C3.9184 8.4926 2.7234 9.671 2.7234 11.9416 L2.7234 23.0928 C2.7234 25.3634 3.9184 26.5532 6.2118 26.5532 Z M15.8672 23.2288 C12.6849 23.2288 10.1223 20.6756 10.1223 17.4777 C10.1223 14.2725 12.6849 11.7192 15.8672 11.7192 C19.0557 11.7192 21.6027 14.2725 21.6027 17.4777 C21.6027 20.6756 19.0517 23.2288 15.8672 23.2288 Z M15.8672 21.3275 C17.996 21.3275 19.7107 19.6156 19.7107 17.4777 C19.7107 15.3375 17.996 13.6205 15.8672 13.6205 C13.7386 13.6205 12.0143 15.3375 12.0143 17.4777 C12.0143 19.6156 13.7479 21.3275 15.8672 21.3275 Z"/>
</svg>
