<?xml version="1.0" encoding="UTF-8"?>
<svg xmlns="http://www.w3.org/2000/svg" viewBox="0 0 32 32">
  <path data-layer="monochrome-0" fill="currentColor" d="M23.7508 14.3565 C24.481 14.3565 25.0773 13.7602 25.0773 13.0393 C25.0773 12.309 24.481 11.7147 23.7508 11.7147 C23.0278 11.7147 22.4335 12.309 22.4335 13.0393 C22.4335 13.7602 23.0278 14.3565 23.7508 14.3565 Z M6.2118 26.5532 L25.5226 26.5532 C27.8159 26.5532 29.0089 25.3634 29.0089 23.0928 L29.0089 11.9416 C29.0089 9.671 27.8159 8.4926 25.5226 8.4926 L22.605 8.4926 C21.7692 8.4926 21.5059 8.3377 20.9904 7.8021 L20.1507 6.8919 C19.5908 6.3117 19.0359 6.0161 17.9566 6.0161 L13.7221 6.0161 C12.6314 6.0161 12.0765 6.3117 11.528 6.8919 L10.677 7.8021 C10.1769 8.3337 9.8982 8.4926 9.0737 8.4926 L6.2118 8.4926 C3.9184 8.4926 2.7234 9.671 2.7234 11.9416 L2.7234 23.0928 C2.7234 25.3634 3.9184 26.5532 6.2118 26.5532 Z M6.3374 24.4617 C5.3558 24.4617 4.8056 23.9564 4.8056 22.9205 L4.8056 12.1252 C4.8056 11.0893 5.3558 10.5747 6.3374 10.5747 L9.6782 10.5747 C10.6324 10.5747 11.1211 10.4006 11.663 9.8134 L12.4684 8.9196 C13.066 8.2655 13.3894 8.1003 14.3209 8.1003 L17.3465 8.1003 C18.28 8.1003 18.6034 8.2677 19.192 8.9128 L20.0157 9.8134 C20.5483 10.3984 21.0463 10.5747 22.0005 10.5747 L25.3969 10.5747 C26.3672 10.5747 26.9195 11.0893 26.9195 12.1252 L26.9195 22.9205 C26.9195 23.9564 26.3672 24.4617 25.3969 24.4617 Z M15.8672 23.0533 C19.0517 23.0533 21.6027 20.5001 21.6027 17.2949 C21.6027 14.097 19.0557 11.5437 15.8672 11.5437 C12.6849 11.5437 10.1223 14.097 10.1223 17.2949 C10.1223 20.5001 12.6849 23.0533 15.8672 23.0533 Z M15.8672 21.152 C13.7479 21.152 12.0143 19.4328 12.0143 17.2949 C12.0143 15.1547 13.7386 13.4451 15.8672 13.4451 C17.996 13.4451 19.7107 15.1547 19.7107 17.2949 C19.7107 19.4328 17.996 21.152 15.8672 21.152 Z"/>
</svg>
