<?xml version="1.0" encoding="UTF-8"?>
<svg xmlns="http://www.w3.org/2000/svg" viewBox="0 0 32 32">
  <path data-layer="monochrome-0" fill="currentColor" d="M2.1818 6.0813 C2.1818 6.6523 2.6679 7.1425 3.2264 7.1425 L6.8036 7.1425 L8.5656 19.2078 C8.8211 20.9045 9.7327 21.9602 11.4633 21.9602 L24.683 21.9602 C25.2154 21.9602 25.6793 21.5444 25.6793 20.9585 C25.6793 20.3629 25.2154 19.9517 24.683 19.9517 L11.7094 19.9517 C11.1642 19.9517 10.8129 19.5622 10.7293 18.9742 L10.5482 17.7983 L24.7742 17.7983 C26.5038 17.7983 27.4094 16.7476 27.6669 15.0266 L28.5229 9.3065 C28.5497 9.1607 28.5712 8.9651 28.5712 8.8461 C28.5712 8.1928 28.1131 7.7384 27.3294 7.7384 L9.0998 7.7384 L8.9193 6.497 C8.7776 5.511 8.3878 5.0223 7.1257 5.0223 L3.2264 5.0223 C2.6679 5.0223 2.1818 5.4982 2.1818 6.0813 Z M10.4079 25.6684 C10.4079 26.7699 11.2912 27.6364 12.378 27.6364 C13.4796 27.6364 14.3482 26.7699 14.3482 25.6684 C14.3482 24.5792 13.4796 23.6982 12.378 23.6982 C11.2912 23.6982 10.4079 24.5792 10.4079 25.6684 Z M20.9146 25.6684 C20.9146 26.7699 21.7977 27.6364 22.8969 27.6364 C23.9861 27.6364 24.8647 26.7699 24.8647 25.6684 C24.8647 24.5792 23.9861 23.6982 22.8969 23.6982 C21.7977 23.6982 20.9146 24.5792 20.9146 25.6684 Z"/>
</svg>
