<svg viewBox="0 0 32 32">
  <path data-layer="monochrome-0" fill="currentColor" d="M15.8596 23.1111 C16.3349 23.1082 16.7584 22.9307 17.114 22.5538 L27.6861 11.7315 C27.987 11.4306 28.1512 11.0569 28.1512 10.6095 C28.1512 9.7023 27.4479 8.9865 26.5492 8.9865 C26.114 8.9865 25.6902 9.1722 25.3776 9.4785 L15.1799 19.9309 L16.5386 19.9309 L6.3295 9.4785 C6.0195 9.1751 5.6174 8.9865 5.1698 8.9865 C4.2684 8.9865 3.5556 9.7023 3.5556 10.6095 C3.5556 11.0539 3.7253 11.4277 4.0233 11.7341 L14.6079 22.5564 C14.973 22.9363 15.3751 23.1111 15.8596 23.1111 Z"/>
</svg>
