<svg viewBox="0 0 32 32">
  <path data-layer="monochrome-0" fill="currentColor" d="M15.697 29.5385 C23.0106 29.5385 28.946 23.6167 28.946 16.303 C28.946 8.9894 23.0106 3.0676 15.697 3.0676 C8.397 3.0676 2.4615 8.9894 2.4615 16.303 C2.4615 23.6167 8.397 29.5385 15.697 29.5385 Z M15.697 26.9369 C9.8193 26.9369 5.0719 22.1807 5.0719 16.303 C5.0719 10.4254 9.8193 5.6692 15.697 5.6692 C21.5771 5.6692 26.3333 10.4254 26.3333 16.303 C26.3333 22.1807 21.5771 26.9369 15.697 26.9369 Z"/>
  <path data-layer="monochrome-0" fill="currentColor" d="M9.2165 17.8901 L15.6857 17.8901 C16.2615 17.8901 16.7078 17.4463 16.7078 16.8793 L16.7078 8.4844 C16.7078 7.911 16.2615 7.4672 15.6857 7.4672 C15.1284 7.4672 14.6797 7.911 14.6797 8.4844 L14.6797 15.862 L9.2165 15.862 C8.6407 15.862 8.2081 16.3083 8.2081 16.8793 C8.2081 17.4463 8.6407 17.8901 9.2165 17.8901 Z"/>
</svg>
