<svg viewBox="0 0 32 32">
  <path data-layer="monochrome-0" fill="currentColor" d="M11.6734 29.7675 C12.6997 29.7675 13.3292 29.1809 13.3143 28.1979 L13.0847 15.033 C13.08 14.552 13.2494 14.2759 13.6322 14.1004 C15.2088 13.396 15.9104 12.6483 15.8116 10.4956 L15.4823 3.3716 C15.4523 2.8288 15.1451 2.504 14.6371 2.504 C14.1371 2.504 13.8447 2.8439 13.8471 3.3911 L13.9342 10.31 C13.9366 10.7321 13.6742 10.9928 13.2995 10.9928 C12.8926 10.9928 12.6249 10.7469 12.6224 10.3396 L12.5013 3.1736 C12.4886 2.6483 12.1789 2.3288 11.6734 2.3288 C11.1758 2.3288 10.8661 2.6483 10.8535 3.1736 L10.7323 10.3396 C10.7299 10.7445 10.4597 10.9928 10.0575 10.9928 C9.6759 10.9928 9.4157 10.7321 9.4181 10.31 L9.5054 3.3911 C9.5079 2.8439 9.2155 2.504 8.7177 2.504 C8.2097 2.504 7.8898 2.8312 7.8598 3.3716 L7.5407 10.4956 C7.4419 12.6483 8.1438 13.396 9.7248 14.1004 C10.1075 14.2759 10.2747 14.552 10.2701 15.033 L10.038 28.1979 C10.0207 29.1833 10.6575 29.7675 11.6734 29.7675 Z M20.9127 19.4804 L20.687 28.1481 C20.6553 29.1833 21.3065 29.7675 22.318 29.7675 C23.3511 29.7675 23.9757 29.2239 23.9757 28.2568 L23.9757 3.2322 C23.9757 2.631 23.5792 2.3288 23.1133 2.3288 C22.665 2.3288 22.3695 2.5689 21.9736 3.1192 C20.0818 5.778 18.7791 10.9 18.7791 15.5353 L18.7791 16.1607 C18.7791 16.9909 19.0742 17.5694 19.7165 18.0036 L20.3382 18.4199 C20.7511 18.7113 20.9298 19.0261 20.9127 19.4804 Z"/>
</svg>
