<?xml version="1.0" encoding="UTF-8"?>
<svg xmlns="http://www.w3.org/2000/svg" viewBox="0 0 32 32">
  <path data-layer="monochrome-0" fill="currentColor" d="M10.6782 2.5745 C7.2467 2.5745 4.4651 5.3511 4.4651 8.7678 C4.4651 10.169 4.9473 11.5462 5.7566 12.5809 C5.9763 12.8822 6.2678 13.0018 6.5445 13.0018 C7.2409 13.0018 7.7756 12.2201 7.2483 11.5282 C6.6463 10.788 6.2775 9.8109 6.2775 8.7678 C6.2775 6.3499 8.2375 4.3937 10.6758 4.3937 C13.0058 4.3937 14.9253 6.2346 15.0256 8.5647 C15.028 8.634 15.0305 8.6991 15.0329 8.8069 C15.0696 9.3526 15.4401 9.6492 15.8913 9.6492 C16.3861 9.6492 16.7992 9.3162 16.8196 8.8246 C16.8298 8.7245 16.8249 8.5903 16.8151 8.4276 C16.6536 5.1455 13.9459 2.5745 10.6782 2.5745 Z"/>
  <path data-layer="monochrome-0" fill="currentColor" d="M22.2052 28.4297 C27.0988 26.6476 28.7526 22.5852 26.8546 17.3612 L26.0602 15.1966 C25.3479 13.2199 23.9412 12.3166 22.8221 12.7249 C22.548 12.8262 22.4465 13.0329 22.5455 13.2947 L22.8901 14.2328 C23.0327 14.6535 22.91 14.9405 22.6574 15.0304 C22.392 15.1203 22.1123 14.9983 21.9551 14.5752 L21.7337 13.9537 C21.3113 12.7747 20.2634 12.2657 19.2254 12.6413 C18.7411 12.8192 18.5902 13.1131 18.7384 13.5358 L19.2021 14.8146 C19.3594 15.2376 19.2267 15.512 18.982 15.6121 C18.7142 15.702 18.4346 15.5825 18.2817 15.1547 L17.8557 13.9696 C17.3687 12.6567 16.3775 12.2813 15.3545 12.6495 C14.8974 12.8125 14.727 13.1336 14.8628 13.5415 L15.7859 16.0617 C15.9387 16.4845 15.8058 16.7613 15.5636 16.8488 C15.2983 16.9513 15.0183 16.8144 14.8611 16.4018 L11.8252 8.0442 C11.5113 7.1841 10.7384 6.8176 10.002 7.0894 C9.22 7.3717 8.8796 8.1435 9.1934 8.9961 L13.6105 21.1415 C13.7128 21.428 13.5986 21.6315 13.4202 21.6961 C13.2535 21.761 13.0797 21.703 12.8632 21.4739 L9.9024 18.2864 C9.433 17.7872 8.9239 17.6237 8.3546 17.8369 C7.5493 18.1282 7.2107 18.8752 7.4728 19.5813 C7.5645 19.837 7.7007 20.0448 7.8336 20.212 L11.6642 24.9867 C14.8713 28.955 18.5446 29.7674 22.2052 28.4297 Z"/>
</svg>
