<svg viewBox="0 0 32 32">
  <path data-layer="monochrome-0" fill="currentColor" d="M3.2 12.4052 C3.2 17.7531 7.6761 23.0179 14.6638 27.5138 C15.0348 27.7597 15.5112 28 15.8234 28 C16.1442 28 16.6073 27.7597 16.9807 27.5138 C23.9684 23.0179 28.4445 17.7531 28.4445 12.4052 C28.4445 7.8202 25.2712 4.6202 21.1867 4.6202 C18.8019 4.6202 16.941 5.7173 15.8234 7.3697 C14.7169 5.7282 12.8426 4.6202 10.4578 4.6202 C6.3732 4.6202 3.2 7.8202 3.2 12.4052 Z M5.7149 12.3947 C5.7149 9.2344 7.8036 7.0954 10.6021 7.0954 C12.8561 7.0954 14.1164 8.4672 14.9134 9.6578 C15.2557 10.1632 15.4994 10.3342 15.8234 10.3342 C16.156 10.3342 16.3592 10.1522 16.7284 9.6578 C17.5772 8.4865 18.8017 7.0954 21.0533 7.0954 C23.8518 7.0954 25.9295 9.2344 25.9295 12.3947 C25.9295 16.8157 21.318 21.7093 16.0629 25.2053 C15.9494 25.281 15.8713 25.3346 15.8234 25.3346 C15.7756 25.3346 15.6975 25.281 15.5925 25.2053 C10.3288 21.7093 5.7149 16.8157 5.7149 12.3947 Z"/>
</svg>
