<svg viewBox="0 0 32 32">
  <path data-layer="monochrome-0" fill="currentColor" d="M4.2095 22.6342 L27.0056 22.6342 C27.619 22.6342 28.1061 22.1314 28.1061 21.5208 C28.1061 20.9048 27.6216 20.4098 27.0056 20.4098 L4.2095 20.4098 C3.6068 20.4098 3.122 20.91 3.122 21.5208 C3.122 22.1263 3.6093 22.6342 4.2095 22.6342 Z"/>
  <path data-layer="monochrome-0" fill="currentColor" d="M4.2095 17.1456 L27.0056 17.1456 C27.619 17.1456 28.1061 16.6429 28.1061 16.0346 C28.1061 15.4186 27.6216 14.9213 27.0056 14.9213 L4.2095 14.9213 C3.6068 14.9213 3.122 15.4238 3.122 16.0346 C3.122 16.6377 3.6093 17.1456 4.2095 17.1456 Z"/>
  <path data-layer="monochrome-0" fill="currentColor" d="M4.2095 11.6513 L27.0056 11.6513 C27.619 11.6513 28.1061 11.1462 28.1061 10.5486 C28.1061 9.9327 27.6216 9.4376 27.0056 9.4376 L4.2095 9.4376 C3.6068 9.4376 3.122 9.9378 3.122 10.5486 C3.122 11.1411 3.6093 11.6513 4.2095 11.6513 Z"/>
</svg>
