<?xml version="1.0" encoding="UTF-8"?>
<svg xmlns="http://www.w3.org/2000/svg" viewBox="0 0 32 32">
  <defs>
    <mask id="sfsym-m0" maskUnits="userSpaceOnUse" x="0" y="0" width="32" height="32">
      <rect x="0" y="0" width="32" height="32" fill="white"/>
      <path fill="black" d="M18.9777 5.7241 C18.9777 3.9467 17.5092 2.4785 15.7094 2.4785 C13.9197 2.4785 12.4432 3.9467 12.4432 5.7241 L12.4432 20.49 C12.4432 22.2674 13.9197 23.7334 15.7094 23.7334 C17.5092 23.7334 18.9777 22.2674 18.9777 20.49 Z"/>
    </mask>
  </defs>
  <path data-layer="monochrome-0" fill="currentColor" mask="url(#sfsym-m0)" d="M10.1972 29.7675 L21.2274 29.7675 C24.4278 29.7675 26.2174 27.9757 26.2174 24.7774 L26.2174 15.8153 C26.2174 12.617 24.4278 10.8398 21.2274 10.8398 L10.1972 10.8398 C6.9989 10.8398 5.2093 12.617 5.2093 15.8153 L5.2093 24.7774 C5.2093 27.9757 6.9989 29.7675 10.1972 29.7675 Z M10.2559 27.4872 C8.485 27.4872 7.4874 26.4871 7.4874 24.7162 L7.4874 15.8765 C7.4874 14.118 8.485 13.1156 10.2559 13.1156 L21.1686 13.1156 C22.9417 13.1156 23.9394 14.118 23.9394 15.8765 L23.9394 24.7162 C23.9394 26.4871 22.9417 27.4872 21.1686 27.4872 Z"/>
  <path data-layer="monochrome-0" fill="currentColor" d="M15.7094 4.6741 C15.1245 4.6741 14.6366 5.1492 14.6366 5.7241 L14.6366 17.3395 L14.832 20.681 C14.8668 21.1665 15.2319 21.5686 15.7094 21.5686 C16.1971 21.5686 16.5643 21.1665 16.5969 20.681 L16.7946 17.3395 L16.7946 5.7241 C16.7946 5.1492 16.3044 4.6741 15.7094 4.6741 Z M11.722 16.2475 C11.1938 16.2475 10.7716 16.6323 10.7716 17.1677 C10.7716 17.4479 10.8765 17.6631 11.0769 17.8511 L14.9071 21.5322 C15.1801 21.8151 15.4296 21.8998 15.7094 21.8998 C15.9994 21.8998 16.2488 21.8151 16.524 21.5322 L20.3499 17.8511 C20.5423 17.6631 20.6551 17.4479 20.6551 17.1677 C20.6551 16.6323 20.2206 16.2475 19.6968 16.2475 C19.4243 16.2475 19.1617 16.347 18.9715 16.5623 L17.3125 18.3329 L15.7094 20.2616 L14.1143 18.3329 L12.4473 16.5623 C12.2651 16.347 11.9922 16.2475 11.722 16.2475 Z"/>
</svg>
