<?xml version="1.0" encoding="UTF-8"?>
<svg xmlns="http://www.w3.org/2000/svg" viewBox="0 0 32 32">
  <path data-layer="monochrome-0" fill="currentColor" d="M9.762 29.6001 L21.6194 29.6001 C25.0599 29.6001 26.9837 27.6739 26.9837 24.2357 L26.9837 14.6014 C26.9837 11.1633 25.0599 9.2528 21.6194 9.2528 L9.762 9.2528 C6.3238 9.2528 4.4 11.1633 4.4 14.6014 L4.4 24.2357 C4.4 27.6739 6.3238 29.6001 9.762 29.6001 Z M15.6876 2.6247 C16.3273 2.6247 16.8541 3.1354 16.8541 3.7534 L16.8541 16.24 L16.7571 18.1021 L17.4109 17.3079 L19.1943 15.4044 C19.3988 15.1731 19.6811 15.0661 19.974 15.0661 C20.5371 15.0661 21.0042 15.4797 21.0042 16.0552 C21.0042 16.3565 20.8829 16.5878 20.6761 16.7899 L16.5633 20.7471 C16.2675 21.0512 15.9993 21.1423 15.6876 21.1423 C15.3868 21.1423 15.1186 21.0512 14.8252 20.7471 L10.7076 16.7899 C10.4922 16.5878 10.3795 16.3565 10.3795 16.0552 C10.3795 15.4797 10.8333 15.0661 11.4011 15.0661 C11.6916 15.0661 11.9849 15.1731 12.1808 15.4044 L13.9728 17.3079 L14.6313 18.1069 L14.5343 16.24 L14.5343 3.7534 C14.5343 3.1354 15.0588 2.6247 15.6876 2.6247 Z"/>
</svg>
