<?xml version="1.0" encoding="UTF-8"?>
<svg xmlns="http://www.w3.org/2000/svg" viewBox="0 0 32 32">
  <defs>
    <mask id="sfsym-m0" maskUnits="userSpaceOnUse" x="0" y="0" width="32" height="32">
      <rect x="0" y="0" width="32" height="32" fill="white"/>
      <path fill="black" d="M15.697 23.7096 C11.6244 23.7096 8.2904 20.3757 8.2904 16.303 C8.2904 14.5432 8.9458 12.8752 10.0033 11.6152 C10.395 11.1139 11.0436 11.0694 11.4349 11.4748 C11.8291 11.8607 11.7658 12.3906 11.4522 12.8093 C10.6529 13.7602 10.1881 14.9624 10.1881 16.303 C10.1881 19.3888 12.6031 21.8231 15.697 21.8231 C18.8045 21.8231 21.2082 19.3888 21.2082 16.303 C21.2082 13.4723 19.2061 11.1959 16.4896 10.8306 L16.4896 11.8198 C16.4896 12.2906 16.1424 12.6852 15.6515 12.6852 C15.1495 12.6852 14.8049 12.2906 14.8049 11.8198 L14.8049 9.7909 C14.8049 9.2657 15.1408 8.8965 15.7082 8.8965 C19.7808 8.8965 23.1171 12.2304 23.1171 16.303 C23.1171 20.3757 19.7808 23.7096 15.697 23.7096 Z M16.9311 17.4669 C16.282 18.1297 15.3228 17.9964 14.8213 17.2122 L12.7213 13.9762 C12.3566 13.417 12.9429 12.8902 13.4923 13.227 L16.6842 15.3493 C17.4545 15.8611 17.5829 16.7899 16.9311 17.4669 Z"/>
    </mask>
  </defs>
  <path data-layer="monochrome-0" fill="currentColor" mask="url(#sfsym-m0)" d="M15.697 29.5385 C23.0057 29.5385 28.946 23.6006 28.946 16.303 C28.946 9.0055 23.0057 3.0676 15.697 3.0676 C8.3994 3.0676 2.4615 9.0055 2.4615 16.303 C2.4615 23.6006 8.3994 29.5385 15.697 29.5385 Z"/>
</svg>
