<?xml version="1.0" encoding="UTF-8"?>
<svg xmlns="http://www.w3.org/2000/svg" viewBox="0 0 32 32">
  <path data-layer="monochrome-0" fill="currentColor" d="M20.5184 13.1312 C20.729 13.1312 20.8927 12.992 20.9358 12.7828 C21.4855 9.754 21.8801 9.1373 24.9927 8.6965 C25.2254 8.6643 25.3622 8.4956 25.3622 8.2921 C25.3622 8.0646 25.2254 7.8985 24.9927 7.869 C21.9091 7.4329 21.3999 6.7735 20.9358 3.8119 C20.8875 3.5791 20.729 3.4293 20.5184 3.4293 C20.3104 3.4293 20.1444 3.5791 20.1062 3.801 C19.5595 6.8041 19.1465 7.4276 16.0468 7.869 C15.8057 7.8985 15.6665 8.0646 15.6665 8.2921 C15.6665 8.4956 15.8057 8.6507 16.0468 8.6965 C19.1201 9.1689 19.6103 9.7385 20.1062 12.7695 C20.136 12.992 20.2912 13.1312 20.5184 13.1312 Z M5.9916 23.407 C6.2002 23.407 6.3315 23.2648 6.3611 23.0697 C6.7203 20.7015 6.7282 20.5518 9.2644 20.1716 C9.4619 20.1394 9.5991 20.0031 9.5991 19.8154 C9.5991 19.6118 9.4645 19.4781 9.2644 19.4459 C6.723 19.0444 6.723 18.8976 6.3611 16.5452 C6.3315 16.3501 6.1976 16.2079 5.9916 16.2079 C5.7989 16.2079 5.6676 16.3501 5.6354 16.5478 C5.2811 18.9029 5.2732 19.0575 2.7426 19.4459 C2.5346 19.4781 2.4 19.6091 2.4 19.8154 C2.4 20.0031 2.5346 20.1368 2.7321 20.1716 C5.2785 20.5729 5.2838 20.7173 5.6354 23.0697 C5.6676 23.2648 5.7989 23.407 5.9916 23.407 Z M10.2216 26.999 C10.3695 26.999 10.4829 26.8966 10.5125 26.7353 C10.7561 25.3421 10.6975 25.2962 12.2623 25.0015 C12.4211 24.967 12.5124 24.8479 12.5124 24.7109 C12.5124 24.5606 12.4238 24.4386 12.2649 24.4091 C10.7084 24.112 10.7804 24.0904 10.5125 22.6593 C10.4829 22.52 10.3586 22.4066 10.2216 22.4066 C10.0627 22.4066 9.9603 22.52 9.9198 22.6812 C9.6353 24.0904 9.7291 24.1449 8.1812 24.4091 C8.0195 24.4413 7.9173 24.5497 7.9173 24.7109 C7.9173 24.8479 8.0195 24.967 8.176 25.0015 C9.7291 25.2962 9.6353 25.3421 9.9198 26.7327 C9.9603 26.8966 10.0627 26.999 10.2216 26.999 Z"/>
  <path data-layer="monochrome-0" fill="currentColor" d="M26.8388 28.1574 C27.4523 27.5193 27.4547 26.533 26.8411 25.8925 L10.493 9.5166 C9.8688 8.8788 8.8177 8.8812 8.2124 9.5166 C7.5989 10.1571 7.5989 11.1434 8.2234 11.7862 L24.5691 28.1574 C25.1981 28.8 26.2335 28.7976 26.8388 28.1574 Z M26.0105 27.3203 C25.8146 27.5102 25.5022 27.5235 25.299 27.3203 L13.7108 15.7265 L14.4191 15.021 L26.0105 26.62 C26.2111 26.8097 26.2137 27.1197 26.0105 27.3203 Z"/>
</svg>
