<svg viewBox="0 0 32 32">
  <path data-layer="monochrome-0" fill="currentColor" d="M24.8116 4.8629 L4.4002 25.2844 C3.7838 25.8907 3.7678 26.9747 4.4094 27.6062 C5.0511 28.2322 6.1284 28.2229 6.7257 27.6155 L27.15 7.2013 C27.7628 6.5756 27.7726 5.504 27.1407 4.8722 C26.496 4.2532 25.4502 4.2372 24.8116 4.8629 Z M27.15 25.2813 L6.7257 4.8598 C6.1253 4.2594 5.0413 4.2372 4.4094 4.8691 C3.7776 5.5138 3.7869 6.5849 4.4002 7.1982 L24.8116 27.6124 C25.4373 28.2353 26.5089 28.2322 27.1407 27.6031 C27.7597 26.9556 27.7628 25.8969 27.15 25.2813 Z"/>
</svg>
